<?xml version="1.0" encoding="UTF-8" standalone="no"?>
<svg
   xmlns:dc="http://purl.org/dc/elements/1.1/"
   xmlns:cc="http://creativecommons.org/ns#"
   xmlns:rdf="http://www.w3.org/1999/02/22-rdf-syntax-ns#"
   xmlns:svg="http://www.w3.org/2000/svg"
   xmlns="http://www.w3.org/2000/svg"
   xml:space="preserve"
   style="enable-background:new 0 0 512 512;"
   viewBox="0 0 512 512"
   y="0px"
   x="0px"
   id="Layer_1"
   version="1.1"><metadata
   id="metadata4892"><rdf:RDF><cc:Work
       rdf:about=""><dc:format>image/svg+xml</dc:format><dc:type
         rdf:resource="http://purl.org/dc/dcmitype/StillImage" /><dc:title></dc:title></cc:Work></rdf:RDF></metadata><defs
   id="defs4890" />
<style
   id="style4883"
   type="text/css">
	.st0{fill:#F3BB30;}
</style>
<path
   id="path4885"
   d="M458.7,85.3H53.3C23.9,85.3,0,109.3,0,138.7v234.7c0,29.4,23.9,53.3,53.3,53.3h405.3  c29.4,0,53.3-23.9,53.3-53.3V138.7C512,109.3,488.1,85.3,458.7,85.3z M469.3,200.7l-183.7,96c-9.2,4.7-19.4,7.3-29.7,7.3  c-10.2,0-20.3-2.6-29.7-7.3l-183.7-96v-48.2L246,258.8c6.2,3.2,13.9,3.2,20.1,0l203.3-106.2V200.7z"
   class="st0" />
<path
   id="path5437"
   d="M 35.579661,422.83897 C 24.236021,419.23207 6.6220453,400.60748 3.3620805,388.77288 1.3279234,381.38832 0.82870216,347.788 1.3126899,250.83771 L 1.9525424,122.66524 8.5389247,111.99025 C 12.975694,104.79928 18.962901,99.014052 26.883632,94.264407 L 38.641955,87.213559 H 255.21438 c 178.84323,0 217.81613,0.519643 223.7114,2.982843 11.35032,4.74247 22.16276,15.618608 27.22447,27.384858 4.64258,10.79201 4.67323,11.85769 4.07055,141.57511 -0.67154,144.54348 0.15837,136.11028 -14.87581,151.14455 -15.37977,15.37974 3.19774,14.23113 -236.3077,14.61051 -153.38681,0.24298 -218.062112,-0.35684 -223.457629,-2.07246 z M 372.53957,252.20436 469.47797,201.65209 V 176.9752 c 0,-13.57229 -0.26379,-24.67689 -0.58622,-24.67689 -0.32241,0 -46.45122,23.9659 -102.50848,53.25755 -56.05723,29.29165 -104.5837,53.81581 -107.83659,54.49812 -4.78967,1.00466 -25.75584,-9.12271 -110.25628,-53.25755 C 90.902339,176.82246 43.529893,152.29831 43.018303,152.29831 c -0.511592,0 -0.930167,11.05604 -0.930167,24.56898 v 24.56899 l 93.830504,48.92422 c 51.60678,26.90831 96.75933,50.00304 100.33899,51.32161 3.57966,1.31858 13.89637,2.09975 22.92601,1.73597 l 16.41752,-0.66146 z"
   style="fill:#005480;fill-opacity:0.88942309;stroke-width:2.16949153" /></svg>