<?xml version="1.0" encoding="UTF-8" standalone="no"?>
<svg
   xmlns:dc="http://purl.org/dc/elements/1.1/"
   xmlns:cc="http://creativecommons.org/ns#"
   xmlns:rdf="http://www.w3.org/1999/02/22-rdf-syntax-ns#"
   xmlns:svg="http://www.w3.org/2000/svg"
   xmlns="http://www.w3.org/2000/svg"
   xml:space="preserve"
   style="enable-background:new 0 0 477.9 477.9;"
   viewBox="0 0 477.9 477.9"
   y="0px"
   x="0px"
   id="Capa_1"
   version="1.1"><metadata
   id="metadata5698"><rdf:RDF><cc:Work
       rdf:about=""><dc:format>image/svg+xml</dc:format><dc:type
         rdf:resource="http://purl.org/dc/dcmitype/StillImage" /><dc:title></dc:title></cc:Work></rdf:RDF></metadata><defs
   id="defs5696" />
<style
   id="style5685"
   type="text/css">
	.st0{fill:#F2BA2E;}
</style>
<g
   id="g5691">
	<g
   id="g5689">
		<path
   id="path5687"
   d="M472.9,175.7L353.4,56.2c-6.7-6.7-17.5-6.7-24.1,0c-3.2,3.2-5,7.5-5,12.1v51.2H204.8    c-9.4,0-17.1,7.6-17.1,17.1s7.6,17.1,17.1,17.1h136.5c9.4,0,17.1-7.6,17.1-17.1v-27.1l78.3,78.3L358.4,266v-27.1    c0-9.4-7.6-17.1-17.1-17.1H153.6v-51.2c0-9.4-7.6-17.1-17.1-17.1c-4.5,0-8.9,1.8-12.1,5L5,278.1c-6.7,6.7-6.7,17.5,0,24.1    l119.5,119.5c3.2,3.2,7.5,5,12.1,5c2.2,0,4.5-0.4,6.5-1.3c6.4-2.6,10.5-8.9,10.5-15.8v-51.2h119.5c9.4,0,17.1-7.6,17.1-17.1    s-7.6-17.1-17.1-17.1H136.5c-9.4,0-17.1,7.6-17.1,17.1v27.1l-78.3-78.3l78.3-78.3v27.1c0,9.4,7.6,17.1,17.1,17.1h187.7v51.2    c0,9.4,7.6,17.1,17.1,17.1c4.5,0,8.9-1.8,12.1-5l119.5-119.5C479.5,193.1,479.5,182.3,472.9,175.7z"
   class="st0" />
	</g>
</g>
<path
   id="path5700"
   d="m 131.07319,425.40889 c -1.64164,-0.56747 -4.01357,-1.85815 -5.27096,-2.86819 -1.25739,-1.01004 -29.466815,-29.06619 -62.687612,-62.347 C 4.7508997,301.72453 2.6693974,299.56457 1.4155437,296.16915 -0.21701661,291.7482 0.02250692,286.79582 2.0625571,282.79152 4.1106204,278.77149 125.78846,157.07676 129.593,155.24337 c 1.9847,-0.95641 3.80856,-1.31198 6.8285,-1.33123 6.80264,-0.0433 12.23963,3.35174 15.34471,9.5819 0.93028,1.86654 1.06205,4.86665 1.32577,30.1843 l 0.29283,28.11177 96.34136,0.29283 96.34136,0.29283 2.41086,1.28974 c 3.70465,1.98189 5.68262,3.88881 7.57236,7.30032 l 1.73002,3.12317 0.18084,15.95929 c 0.0995,8.7776 0.36375,15.95928 0.58731,15.95928 0.64771,0 78.00335,-77.53988 78.00335,-78.18914 0,-0.64706 -77.36103,-78.18255 -78.00664,-78.18255 -0.22175,0 -0.48456,7.18168 -0.58402,15.95928 -0.17295,15.26243 -0.23855,16.06729 -1.50255,18.43279 -1.79384,3.35709 -5.05003,6.49825 -8.28936,7.99654 -2.68688,1.24275 -2.71291,1.24324 -73.81059,1.39881 -78.6077,0.17201 -74.6728,0.34703 -79.7801,-3.54844 -1.38348,-1.05522 -3.31171,-3.20764 -4.28495,-4.78316 -1.64626,-2.66503 -1.76954,-3.25522 -1.76954,-8.47188 0,-5.05266 0.15817,-5.87634 1.59908,-8.32745 1.89644,-3.22599 4.45448,-5.50425 8.06434,-7.1823 2.61453,-1.21537 3.12758,-1.22637 64.5479,-1.38446 l 61.91243,-0.15934 0.16772,-28.245251 c 0.16443,-27.691141 0.1926,-28.291205 1.43583,-30.587895 1.70642,-3.152347 5.1883,-6.412851 8.39531,-7.861527 3.91137,-1.766856 10.00226,-1.664072 13.79448,0.232782 2.2487,1.124794 16.80541,15.37565 65.05766,63.690711 59.37522,59.45251 62.20641,62.38309 63.1788,65.39673 1.39277,4.31651 0.94835,9.52331 -1.14042,13.36107 -2.22616,4.0902 -123.0907,124.84317 -126.81742,126.70036 -3.571,1.7796 -8.97735,2.15983 -12.77494,0.89847 -3.83282,-1.27305 -7.8338,-4.82823 -9.74112,-8.65574 l -1.51329,-3.03678 v -27.69206 -27.69207 l -95.90211,-0.15829 -95.90212,-0.15829 -3.09196,-1.39727 c -3.80309,-1.71864 -7.87935,-6.09996 -9.15304,-9.83803 -0.75893,-2.22733 -0.93239,-5.57699 -0.93239,-18.00516 v -15.26874 l -39.384661,39.38465 -39.384659,39.38467 39.238244,39.24309 39.238246,39.2431 0.29283,-15.9625 0.29283,-15.96249 1.58716,-3.00904 c 0.87293,-1.65498 2.68896,-3.95216 4.03562,-5.10484 4.86004,-4.16001 -0.10555,-3.92756 80.20868,-3.75483 l 72.29722,0.15548 3.22114,1.81525 c 11.44393,6.44914 11.38585,22.89032 -0.10334,29.25471 l -3.1178,1.7271 -62.37298,0.29283 -62.37298,0.29283 -0.29283,28.40459 -0.29283,28.4046 -1.60644,2.73272 c -4.25657,7.24086 -12.3475,10.30426 -20.11952,7.61768 z"
   style="fill:#005480;fill-opacity:0.88942309;stroke-width:0.58566177" /></svg>