<svg xmlns="http://www.w3.org/2000/svg" xmlns:svg="http://www.w3.org/2000/svg" style="enable-background:new 0 0 512 512" id="Layer_1" x="0" y="0" version="1.1" viewBox="0 0 512 512" xml:space="preserve"><metadata id="metadata4819"/><style id="style4810" type="text/css">.st0{fill:#f3bb30}</style><path id="path4812" d="M256,6.2C114.6,6.2,0,120.8,0,262.2c0,113.2,73.5,209.2,175.1,243.2c12.8,2,16.9-5.9,16.9-12.8 c0-5.9,0-22,0-43.3c-70.9,15.4-86-34.3-86-34.3c-11.8-29.7-28.4-37.6-28.4-37.6c-23.3-15.9,1.8-15.4,1.8-15.4 c25.6,1.8,39.2,26.4,39.2,26.4c22.3,38.9,59.9,27.4,74.5,21.2c2.3-16.6,9-27.9,16.1-34.3c-56.8-6.4-116.5-28.4-116.5-126 c0-28.4,9.7-51.2,26.4-69.4c-2.6-6.4-11.5-33,2.6-67.6c0,0,21.5-6.9,70.4,26.1c20.2-5.6,42.2-8.4,64-8.4s43.8,2.8,64,8.4 c48.9-33,70.4-26.1,70.4-26.1c14.1,34.6,5.1,61.2,2.6,67.6c16.6,18.2,26.4,41,26.4,69.4c0,97.8-59.9,119.3-117,125.7 c9.2,7.9,17.7,23.6,17.7,47.4c0,34.3,0,62,0,70.1c0,6.9,4.1,15.1,17.2,12.8C438.8,471.1,512,375.4,512,262.2 C512,120.8,397.4,6.2,256,6.2z" class="st0"/><path id="path4821" d="M 173.11373,504.47559 C 98.230582,478.66259 38.498898,418.39975 13.475677,343.41796 7.8327573,326.50901 4.1756376,309.89797 1.7168026,290.00784 0.37483514,279.15234 0.19090058,248.65974 1.3988752,237.30196 7.7976621,177.13843 33.275242,123.33142 75.228819,81.377838 116.5714,40.03526 168.79931,14.969064 228.32941,7.8989341 c 11.51295,-1.367342 41.31987,-1.5678086 52.39216,-0.3523636 33.47986,3.6752045 62.82938,12.2839615 91.29412,26.7782555 71.07879,36.193442 121.2435,103.452264 135.47825,181.643804 3.13694,17.23119 3.79552,25.2877 3.79552,46.43137 0,21.19873 -0.67234,29.38225 -3.81466,46.43137 -8.21783,44.58698 -28.33617,86.40323 -58.11091,120.78432 -8.52267,9.84119 -23.86198,24.63562 -33.74036,32.54184 -9.04916,7.24256 -24.29072,17.61544 -33.63029,22.88761 -9.22144,5.20549 -25.58984,12.89294 -35.49308,16.66941 -7.7148,2.94193 -9.8535,3.50898 -13.23465,3.50898 -5.57894,0 -8.9773,-1.8296 -11.11678,-5.985 l -1.58402,-3.07658 -0.37334,-43.62608 c -0.31937,-37.31913 -0.52136,-44.23497 -1.39721,-47.83794 -2.90051,-11.93178 -6.87592,-19.99803 -13.25261,-26.89 -2.63998,-2.85331 -3.84844,-2.30774 9.68982,-4.37454 56.46566,-8.62025 88.26111,-34.68051 99.79629,-81.79527 4.95915,-20.25533 5.99523,-47.06349 2.48798,-64.37537 -3.25168,-16.05041 -10.8661,-31.9343 -20.84043,-43.47369 l -3.13814,-3.63055 1.59309,-5.78121 c 5.03779,-18.28181 4.29779,-36.90213 -2.23117,-56.14236 l -2.06631,-6.08923 -2.50654,-0.45285 c -1.37859,-0.24907 -5.04771,-0.18671 -8.15359,0.13857 -14.24387,1.49179 -32.25236,8.80136 -52.09293,21.14431 l -8.17137,5.08346 -6.26001,-1.53089 c -7.41655,-1.81373 -21.2152,-4.26116 -30.41687,-5.39496 -4.26048,-0.52496 -14.12573,-0.80265 -27.92157,-0.78594 -18.62393,0.0226 -22.59947,0.20446 -31.3027,1.43224 -10.1128,1.42664 -22.55593,3.84013 -28.35513,5.4998 l -3.18724,0.91216 -8.03368,-5.03198 c -23.32876,-14.61221 -46.86918,-23.04868 -60.07599,-21.53018 l -2.95474,0.33974 -2.21222,6.66638 c -4.10427,12.36799 -4.96266,17.75751 -5.00915,31.4507 -0.0434,12.77573 0.64834,18.0258 3.44652,26.15886 l 1.19154,3.46326 -3.68422,4.48306 c -15.138061,18.42039 -22.623996,40.27374 -22.64137,66.09594 -0.01343,20.00011 3.431893,41.19983 9.11675,56.09669 14.69528,38.5082 45.82039,60.11082 97.71293,67.81845 l 9.26621,1.37631 -2.11757,2.23411 c -5.93745,6.26423 -10.90933,16.98783 -12.99595,28.03039 l -0.72476,3.83549 -4.79805,1.64813 c -10.58252,3.63512 -21.21801,5.11154 -29.89044,4.14939 -16.18173,-1.79525 -27.38681,-9.30314 -38.27241,-25.6442 -7.96704,-11.95982 -12.61906,-16.68405 -21.968522,-22.3095 -10.05206,-6.0482 -25.263793,-7.51826 -29.48869,-2.8498 -2.403175,2.65547 0.960433,7.20996 9.791943,13.25878 11.838488,8.10834 20.48177,19.888 28.158289,38.37608 6.94609,16.7289 21.51519,29.01032 40.03209,33.74614 11.98691,3.06574 27.56651,3.17755 41.38872,0.29703 l 3.92157,-0.81725 v 23.15922 c 0,24.42973 -0.14231,25.80176 -3.00432,28.96664 -2.92914,3.2391 -10.36213,4.58907 -15.50548,2.8161 z" style="fill:#005480;fill-opacity:.88942309;stroke-width:.627451"/></svg>