<svg xmlns="http://www.w3.org/2000/svg" xmlns:svg="http://www.w3.org/2000/svg" id="Layer_1" x="0" y="0" version="1.1" viewBox="0 0 512 512" xml:space="preserve" style="enable-background:new 0 0 512 512"><metadata id="metadata13"/><style id="style2" type="text/css">.st0{fill:#f3bb30}</style><path id="path4" d="M186.7,375.7v98.9c0,6.9,4.4,13,11,15.2c1.6,0.5,3.3,0.8,5,0.8c5,0,9.8-2.3,12.9-6.5l57.9-78.8L186.7,375.7z" class="st0"/><path id="path6" d="M505.3,3c-4.9-3.5-11.3-3.9-16.7-1.2L8.6,252.5c-5.7,3-9,9-8.6,15.4c0.5,6.4,4.7,11.9,10.8,13.9l133.4,45.6 l284.2-243L208.5,349.4l223.6,76.4c1.7,0.6,3.4,0.9,5.2,0.9c2.9,0,5.8-0.8,8.3-2.3c4.1-2.5,6.8-6.6,7.5-11.3l58.7-394.7 C512.7,12.4,510.2,6.5,505.3,3z" class="st0"/><path style="fill:navy;fill-opacity:.88942309;stroke-width:2.16949153" id="path4523" d="M 322.31808,387.65249 C 262.2615,366.99396 212.62284,349.59006 212.00995,348.97718 211.19008,348.15731 344.92177,185.28055 425.87954,88.497553 c 3.15568,-3.772528 3.15659,-3.964969 0.0109,-2.169491 -1.8995,1.083633 -65.65066,55.177018 -141.66982,120.207528 -76.01918,65.03051 -139.38755,118.43997 -140.81863,118.6877 -1.43107,0.24773 -32.84208,-10.00311 -69.802246,-22.77966 C 14.616443,282.05407 6.0036324,278.5021 3.1628514,273.39513 -4.5678222,259.49748 -16.608762,266.63279 248.18983,128.19525 382.42712,58.015575 493.83444,0.55940469 495.76166,0.51487024 501.67899,0.37813142 510.69831,8.991554 510.69831,14.779332 c 0,2.943898 -13.17967,93.897838 -29.28814,202.119858 -16.10848,108.22202 -29.28814,197.51203 -29.28814,198.42221 0,3.98002 -9.17313,10.31455 -14.64406,10.11246 -3.28136,-0.12127 -55.10331,-17.12282 -115.15989,-37.78137 z"/><path style="fill:navy;fill-opacity:.88942309;stroke-width:2.16949153" id="path4525" d="m 190.90173,483.86258 c -2.92348,-4.17385 -3.45766,-12.7384 -3.45766,-55.43683 0,-29.8099 0.82946,-50.50033 2.02453,-50.50033 1.52813,0 60.08608,19.85178 79.89178,27.08418 1.70826,0.6238 -8.52014,16.24286 -27.33152,41.736 -29.78521,40.36487 -30.14228,40.74518 -38.86543,41.39632 -7.13321,0.53246 -9.46022,-0.27967 -12.2617,-4.27934 z"/><path id="path4728" d="m 426.2902,422.03693 c -25.06987,-7.77452 -119.29451,-39.751 -180.70589,-61.32512 -32.54548,-11.43339 -33.37683,-11.75256 -32.75435,-12.57491 12.4665,-16.46899 108.92611,-134.05297 183.19561,-223.31493 17.73491,-21.31498 32.15258,-39.030422 32.03927,-39.367658 -0.38404,-1.143002 -3.92868,1.68315 -33.14954,26.430258 -28.72092,24.32372 -41.9323,35.57521 -118.58589,100.99391 -63.33241,54.04996 -113.08048,96.09441 -127.81302,108.02084 l -5.14636,4.16613 -4.57913,-1.27843 C 126.83728,320.44976 58.074281,297.01944 31.003285,287.05946 9.0148135,278.96944 4.9076543,276.61105 1.8213004,270.30277 0.03343523,266.64851 0.20678726,265.33955 2.8768036,262.33284 9.5969198,254.7653 34.41173,240.63107 119.78039,195.74586 285.33653,108.69961 490.95772,2.1278481 495.45028,1.0392584 c 3.68874,-0.89381897 11.49429,4.8743042 13.94232,10.3030636 1.16052,2.573583 1.15542,2.724342 -0.51866,15.299025 -2.68278,20.151489 -12.1399,84.836383 -33.3678,228.229243 -10.85628,73.33333 -20.59231,139.26274 -21.63563,146.5098 -1.04333,7.24706 -2.04795,13.86721 -2.2325,14.71145 -0.79157,3.62121 -8.92735,8.82368 -13.73997,8.78611 -1.38039,-0.0108 -6.60392,-1.28924 -11.60784,-2.84102 z" style="fill:#005480;fill-opacity:.88942309;stroke-width:.627451"/><path id="path4730" d="m 197.08359,487.63913 c -3.03316,-0.53957 -6.3018,-3.66036 -7.29066,-6.96086 -1.44922,-4.83708 -1.91361,-16.83064 -1.90423,-49.18023 0.009,-30.13411 0.64867,-52.02495 1.5471,-52.92339 0.50181,-0.5018 67.0691,21.75949 78.28348,26.17939 l 1.74281,0.68689 -1.34717,2.64065 c -3.59336,7.04358 -16.03177,24.82292 -36.17474,51.70782 -14.23007,18.99294 -19.20162,24.81188 -22.69687,26.56556 -2.54543,1.27713 -8.60309,1.91686 -12.15972,1.28417 z" style="fill:#005480;fill-opacity:.88942309;stroke-width:.627451"/></svg>