<svg xmlns="http://www.w3.org/2000/svg" xmlns:svg="http://www.w3.org/2000/svg" style="enable-background:new 0 0 512 512" id="Capa_1" x="0" y="0" version="1.1" viewBox="0 0 512 512" xml:space="preserve"><metadata id="metadata4636"/><style id="style4627" type="text/css">.st0{fill:#f3bb30}</style><path id="path4629" d="M512,97.2c-19,8.4-39.3,13.9-60.5,16.6c21.8-13,38.4-33.4,46.2-58c-20.3,12.1-42.7,20.6-66.6,25.4 C411.9,60.7,384.4,48,354.5,48c-58.1,0-104.9,47.2-104.9,105c0,8.3,0.7,16.3,2.4,23.9c-87.3-4.3-164.5-46.1-216.4-109.8 c-9.1,15.7-14.4,33.7-14.4,53.1c0,36.4,18.7,68.6,46.6,87.2c-16.9-0.3-33.4-5.2-47.4-12.9c0,0.3,0,0.7,0,1.2 c0,51,36.4,93.4,84.1,103.1c-8.5,2.3-17.9,3.5-27.5,3.5c-6.7,0-13.5-0.4-19.9-1.8c13.6,41.6,52.2,72.1,98.1,73.1 c-35.7,27.9-81.1,44.8-130.1,44.8c-8.6,0-16.9-0.4-25.1-1.4c46.5,30,101.6,47.1,161,47.1c193.2,0,298.8-160,298.8-298.7 c0-4.6-0.2-9.1-0.4-13.6C480.2,137,497.7,118.5,512,97.2z" class="st0"/><path id="path4638" d="M 139.23137,463.14381 C 92.296828,459.5322 47.660744,445.40488 7.9600075,421.59642 c -3.5247414,-2.11378 -6.345222,-3.90663 -6.2677349,-3.98412 0.077487,-0.0775 2.9613662,0.11092 6.4086203,0.41867 36.0479171,3.2182 77.7686601,-4.8382 110.8220771,-21.40006 11.50409,-5.76427 27.73932,-15.8198 34.71754,-21.50282 l 1.86013,-1.51486 -4.68365,-0.41602 C 135.02275,371.7943 123.13183,368.47622 109.79949,361.75157 86.548361,350.02403 68.234378,329.47349 58.823296,304.55 c -1.412504,-3.74075 -1.429897,-3.94597 -0.304142,-3.58867 4.749514,1.50744 20.47855,2.00789 29.888689,0.95098 7.206243,-0.80938 15.999997,-2.52736 15.999997,-3.12583 0,-0.25376 -1.11768,-0.64011 -2.48374,-0.85856 -4.630855,-0.7405 -15.850262,-4.7707 -22.541154,-8.09717 -29.209271,-14.52177 -49.838403,-41.1305 -56.533935,-72.92095 -1.412013,-6.70425 -2.456544,-21.64865 -1.512846,-21.64471 0.309031,0.001 1.408933,0.51425 2.444227,1.13992 4.723833,2.8548 15.199095,6.59395 24.784314,8.84679 5.136919,1.20734 18.7121,2.88054 19.223291,2.36935 0.136778,-0.13677 -1.8031,-1.77271 -4.310833,-3.63541 -20.550327,-15.26445 -34.891667,-38.15905 -40.147762,-64.09216 -1.231293,-6.07508 -1.426098,-8.90396 -1.393696,-20.23868 0.04143,-14.49122 0.854733,-19.997247 4.695685,-31.789401 1.703536,-5.230043 8.297039,-19.975303 8.932174,-19.975303 0.137238,0 2.765696,2.887144 5.841019,6.415875 24.339673,27.928189 52.102798,50.172239 84.650316,67.822549 35.85615,19.44457 78.88539,31.85789 120.23206,34.68524 l 6.03598,0.41275 -0.96109,-4.62899 c -0.68056,-3.2778 -0.97716,-8.65831 -1.01613,-18.43291 -0.0479,-12.02953 0.12892,-14.71172 1.37608,-20.86614 7.57153,-37.363529 34.10268,-67.775077 69.38344,-79.53134 12.47304,-4.15627 17.93351,-4.970262 33.34182,-4.970262 12.00199,0 14.66394,0.18605 20.39216,1.425253 19.39934,4.196717 37.2544,13.29748 50.13245,25.552613 3.65098,3.474378 6.05372,5.291833 6.99601,5.291833 2.36779,0 17.91528,-4.139199 26.63624,-7.091351 10.45835,-3.540282 19.96723,-7.616342 29.71973,-12.739612 4.26742,-2.241797 7.89555,-3.939377 8.06253,-3.7724 0.84212,0.842127 -4.82804,13.634874 -9.21031,20.779833 -7.71926,12.585669 -20.0515,25.281933 -31.96635,32.909913 -1.85979,1.19065 -3.02612,2.28325 -2.59185,2.428 1.09449,0.36483 8.74857,-0.88617 19.16272,-3.13203 10.25861,-2.2123 23.75009,-6.29129 32.60716,-9.85837 3.43982,-1.385349 6.33532,-2.437709 6.43445,-2.33858 0.29501,0.295008 -8.62103,12.16353 -13.95742,18.5793 -7.3428,8.82804 -18.94115,20.11842 -28.68514,27.92347 l -8.61892,6.90386 -0.2504,16.93928 c -0.26215,17.73436 -1.18693,28.33714 -3.87565,44.4346 -13.91645,83.31846 -62.26023,158.88155 -130.16388,203.45089 -39.04094,25.62497 -82.0392,40.56984 -131.76471,45.79735 -10.96429,1.15265 -43.73812,1.67377 -54.27451,0.86299 z" style="fill:#005480;fill-opacity:.88942307;stroke-width:.627451"/></svg>