<svg xmlns="http://www.w3.org/2000/svg" xmlns:xlink="http://www.w3.org/1999/xlink" style="enable-background:new 0 0 53 53" id="Capa_1" width="512" height="512" x="0" y="0" version="1.1" viewBox="0 0 53 53" xml:space="preserve"><g><g><path fill="#FFF" d="M2,13.5h49c1.104,0,2-0.896,2-2s-0.896-2-2-2H2c-1.104,0-2,0.896-2,2S0.896,13.5,2,13.5z"/><path fill="#FFF" d="M2,28.5h49c1.104,0,2-0.896,2-2s-0.896-2-2-2H2c-1.104,0-2,0.896-2,2S0.896,28.5,2,28.5z"/><path fill="#FFF" d="M2,43.5h49c1.104,0,2-0.896,2-2s-0.896-2-2-2H2c-1.104,0-2,0.896-2,2S0.896,43.5,2,43.5z"/></g></g></svg>